PathFileType	4	(X/Y/Z)	C:\Users\Basilio\Documents\Thesis Gigler\squatting_fais\c3dfiles\076\SLS_front_pre1\markers_experimental.trc
DataRate	CameraRate	NumFrames	NumMarkers	Units	OrigDataRate	OrigDataStartFrame	OrigNumFrames
200.000000	200.000000	4	61	mm	200.000000	580	1548
Frame#	Time	FHD			LBHD			RBHD			C7			T10			CLAV			LSHO			LUUPA			LMUPA			LDUPA			LLEP			LMEP			LRAD			LUL			LRFIN			RSHO			RUPA1			RMUPA			RDUPA			RLEP			RMEP			RRAD			RUL			RUFIN			LASI			RASI			USACR			LSACR			RSACR			LTHI1			LTHI2			LTHI3			LTHI4			LLFC			LMFC			LTIB1			LTIB2			LTIB3			LTIB4			LLMAL			LMMAL			LHEE			LMT1			LMT2			LMT5			RTHI			RTHI2			RTHI3			RTHI4			RLFC			RMFC			RTIB1			RTIB2			RTIB3			RTIB4			RLMAL			RMMAL			RHEE			RMT1			RMT2			RMT5			
		X1	Y1	Z1	X2	Y2	Z2	X3	Y3	Z3	X4	Y4	Z4	X5	Y5	Z5	X6	Y6	Z6	X7	Y7	Z7	X8	Y8	Z8	X9	Y9	Z9	X10	Y10	Z10	X11	Y11	Z11	X12	Y12	Z12	X13	Y13	Z13	X14	Y14	Z14	X15	Y15	Z15	X16	Y16	Z16	X17	Y17	Z17	X18	Y18	Z18	X19	Y19	Z19	X20	Y20	Z20	X21	Y21	Z21	X22	Y22	Z22	X23	Y23	Z23	X24	Y24	Z24	X25	Y25	Z25	X26	Y26	Z26	X27	Y27	Z27	X28	Y28	Z28	X29	Y29	Z29	X30	Y30	Z30	X31	Y31	Z31	X32	Y32	Z32	X33	Y33	Z33	X34	Y34	Z34	X35	Y35	Z35	X36	Y36	Z36	X37	Y37	Z37	X38	Y38	Z38	X39	Y39	Z39	X40	Y40	Z40	X41	Y41	Z41	X42	Y42	Z42	X43	Y43	Z43	X44	Y44	Z44	X45	Y45	Z45	X46	Y46	Z46	X47	Y47	Z47	X48	Y48	Z48	X49	Y49	Z49	X50	Y50	Z50	X51	Y51	Z51	X52	Y52	Z52	X53	Y53	Z53	X54	Y54	Z54	X55	Y55	Z55	X56	Y56	Z56	X57	Y57	Z57	X58	Y58	Z58	X59	Y59	Z59	X60	Y60	Z60	X61	Y61	Z61	

581	2.9	-177.3250732421875	1191.882690429688	-1045.4677734375	-320.1347656250001	1133.104858398438	-1146.161743164063	-310.3969726562501	1139.406127929688	-994.0678710937502	-377.5086059570313	1040.262939453125	-1054.185424804688	-532.0398559570314	768.911071777344	-1021.264404296875	-271.3721313476563	935.1694946289065	-1064.835815429688	-307.3183593750001	996.8106079101565	-1214.639038085938	-174.4346771240235	956.3712158203127	-1305.318603515625	-139.182601928711	967.192321777344	-1273.640502929688	-110.2264251708985	950.5591430664065	-1325.309936523438	-62.18840408325197	930.947692871094	-1343.303100585938	-51.141170501709	866.4821777343752	-1297.526733398438	189.0777893066407	952.280456542969	-1314.731811523438	181.5140686035157	957.353942871094	-1379.728515625	271.1383666992188	970.7529907226565	-1321.761596679688	-289.7553405761719	996.6665649414065	-917.3529052734377	-153.4072570800782	952.3169555664065	-829.8763427734377	-125.1995620727539	980.1927490234377	-858.0816040039065	-83.11749267578126	945.3508300781252	-830.6608886718752	-16.4951286315918	947.8157348632815	-839.296081542969	-15.75327587127686	895.0404052734377	-894.5242919921877	221.6833190917969	967.2424316406252	-909.1511840820315	218.0686950683594	968.9733886718752	-843.5603637695315	298.3416137695313	988.7178955078127	-902.4602050781252	-432.8382873535157	585.0042114257814	-1133.50146484375	nan	nan	nan	-578.8399047851564	651.9743652343751	-1010.247802734375	-594.3213500976564	624.5621337890626	-1039.356567382813	-588.4374389648439	619.1776733398439	-983.1262817382815	-420.5970458984376	493.8645019531251	-1205.122924804688	-335.7585754394532	498.8898925781251	-1202.048828125	-319.8523864746094	538.6793212890626	-1178.299682617188	-296.3465576171876	452.1718750000001	-1198.460083007813	-159.043212890625	388.580780029297	-1168.833251953125	-155.1875610351563	406.5248107910157	-1051.861450195313	-184.0940856933594	280.2807312011719	-1059.64599609375	-225.6399078369141	223.8381042480469	-1113.91943359375	-203.2010803222657	226.4084625244141	-1072.807983398438	-263.9872131347657	186.4781036376953	-1031.621826171875	-376.9924011230469	106.0711822509766	-1072.619384765625	-348.2141113281251	122.9669799804688	-991.3547363281252	-441.388641357422	96.647819519043	-1022.301879882813	-239.3688659667969	51.0992889404297	-1001.717590332031	-234.0929260253907	49.18238067626955	-1040.9150390625	-259.1138000488282	44.04127502441407	-1090.740478515625	-325.4306030273438	406.1667785644532	-848.9949340820315	-259.2657470703126	415.0492553710939	-854.706481933594	-246.8518218994141	446.474822998047	-865.647399902344	-202.7229919433594	356.3229675292969	-872.9029541015627	-152.9960174560547	328.7933349609376	-878.903503417969	-138.6884002685547	346.1764831542969	-995.472351074219	-16.65091896057129	295.0087890625001	-900.9291992187502	14.70952701568604	193.5670166015626	-873.0645141601565	40.80265045166016	231.2956695556641	-885.1992797851565	85.60217285156251	217.1731262207032	-919.2445068359377	175.3788452148438	90.79060363769533	-884.730895996094	170.6536254882813	113.7616806030274	-966.510681152344	154.2830657958985	32.60664367675782	-923.6680908203127	306.4993896484376	167.0474090576172	-969.2043457031252	306.9631042480469	180.6053009033203	-924.0631103515627	306.9694213867188	150.8098297119141	-868.5332641601565	
582	2.905	-177.0876007080078	1189.650146484375	-1045.523193359375	-319.8404235839844	1130.739013671875	-1146.244384765625	-310.0755615234376	1137.103637695313	-994.049499511719	-377.1922912597657	1038.034912109375	-1054.2080078125	-531.9970092773439	766.8039550781251	-1021.203857421875	-271.1813659667969	932.951843261719	-1064.883178710938	-307.0326538085938	994.5808715820315	-1214.610229492188	-174.2275390625	954.1972656250002	-1305.232177734375	-138.9767456054688	965.0737915039065	-1273.557006835938	-109.7572479248047	948.4993896484377	-1325.199096679688	-61.89876937866212	928.7814941406252	-1343.273559570313	-50.61276245117189	864.1961669921877	-1297.33740234375	189.4629364013672	950.1343383789065	-1314.636352539063	182.0811920166016	955.3145751953127	-1379.778686523438	271.5201721191407	968.4626464843752	-1321.649658203125	-289.5109252929688	994.4291992187502	-917.497985839844	-153.0872192382813	950.4411621093752	-830.1225585937502	-124.9333572387696	978.1514282226565	-858.184509277344	-82.84109497070314	943.578796386719	-830.531188964844	-16.20088768005371	945.8367919921877	-839.5262451171877	-15.48046970367432	893.037780761719	-894.854675292969	222.0296478271485	965.9263305664065	-909.629333496094	218.3402862548829	966.9799804687502	-843.8917236328127	298.6622619628907	986.7031250000002	-902.6484375000002	-432.7664184570314	583.2617187500001	-1133.390258789063	nan	nan	nan	-578.9590454101564	649.7778930664064	-1010.169250488281	-594.3150024414064	622.4880981445314	-1039.280639648438	-588.4347534179689	617.1048583984376	-983.0563964843752	-420.7161560058595	492.3385009765626	-1205.244873046875	-335.5121154785157	497.899383544922	-1202.038940429688	-320.2644042968751	537.6446533203126	-1178.166748046875	-296.0497131347657	450.9566650390626	-1198.290283203125	-158.7186431884766	387.9947814941407	-1168.63134765625	-154.7792358398438	406.125457763672	-1051.467651367188	-183.8785858154297	280.0673217773438	-1059.467895507813	-225.2054443359376	223.5215148925782	-1113.7099609375	-202.950912475586	226.0481262207032	-1072.572875976563	-264.0016174316407	185.8632049560547	-1031.507202148438	-376.9776916503907	106.0572586059571	-1072.568115234375	-348.1882019042969	122.9468154907227	-991.2985839843752	-441.4698486328126	96.70237731933597	-1022.293395996094	-239.4129333496094	50.99344635009767	-1001.726745605469	-234.0539550781251	49.13203430175783	-1040.8037109375	-259.0975952148438	44.06000137329102	-1090.655883789063	-325.1661987304688	404.5236816406251	-848.9656372070315	-258.9008178710938	413.5886230468751	-854.670837402344	-246.6600952148438	445.0415344238282	-865.5299072265627	-202.2086334228516	354.9956665039063	-872.7474365234377	-152.5111999511719	327.6777038574219	-878.8187255859377	-138.3539276123047	345.0897216796876	-995.4456787109377	-16.07113265991211	294.1213684082032	-901.002624511719	15.40056133270264	192.7823944091797	-873.1739501953127	41.63266754150391	230.6096801757813	-885.188415527344	86.61976623535158	216.6234741210938	-919.2590332031252	176.1294403076172	91.03720092773439	-884.3061523437502	171.596664428711	113.6181106567383	-966.5668945312502	154.9691314697266	32.67979049682618	-923.7336425781252	307.5916748046876	167.4383697509766	-970.339050292969	308.4754333496094	179.981430053711	-924.1499023437502	307.9917297363282	150.306869506836	-868.8475341796877	
583	2.91	-176.7674865722657	1187.220458984375	-1045.642578125	-319.5202331542969	1128.43994140625	-1146.2373046875	-309.8150634765626	1134.79443359375	-994.1207275390627	-377.0577392578126	1035.711791992188	-1054.2861328125	-531.9874267578126	764.6718139648439	-1021.1396484375	-270.8895874023438	930.6693115234377	-1064.860229492188	-306.9758300781251	992.4052734375002	-1214.59375	-173.9881439208985	952.1521606445315	-1305.244384765625	-138.6873321533203	962.8503417968752	-1273.540893554688	-109.4530334472657	946.3618774414065	-1325.119384765625	-60.76747131347658	926.4329223632815	-1342.755737304688	-50.47566223144533	862.1817016601565	-1297.71484375	189.6347198486328	947.9033813476565	-1314.662109375	182.224609375	953.0977172851565	-1379.65283203125	271.7065429687501	966.246765136719	-1321.543701171875	-289.2146606445313	992.3171386718752	-917.642761230469	-152.8436431884766	948.3514404296877	-830.2023925781252	-124.5918731689453	976.1264648437502	-858.4033813476565	-82.5509719848633	941.4521484375002	-830.6605224609377	-15.9575834274292	943.8723754882815	-839.6927490234377	-15.15113544464112	890.9405517578127	-895.0667724609377	222.1296997070313	963.3778076171877	-909.7866821289065	218.5758056640626	965.1184692382815	-844.2320556640627	298.8041076660157	984.8662719726565	-902.796569824219	-432.5614013671876	581.2079467773439	-1133.059448242188	nan	nan	nan	-578.9506835937501	647.7305908203126	-1010.12939453125	-594.3045043945314	620.3223266601564	-1039.28759765625	-588.5501708984376	614.8716430664064	-983.0118408203127	-420.2742919921876	490.5725402832032	-1205.055908203125	-335.5300598144532	496.460906982422	-1201.827026367188	-320.1942443847657	536.2382202148439	-1177.763427734375	-296.2630004882813	450.2117919921876	-1199.598022460938	-158.2886047363282	387.2087402343751	-1168.534790039063	-154.4671020507813	405.640106201172	-1051.263671875	-183.619384765625	280.2226867675782	-1059.467407226563	-224.8945617675782	223.2420196533204	-1113.576782226563	-202.7340240478516	225.6275024414063	-1072.3330078125	-263.8766174316407	185.7245788574219	-1031.276000976563	-377.0667419433594	106.1055221557617	-1072.51318359375	-348.2172851562501	122.9279251098633	-991.2463378906252	-441.4787597656251	96.6582946777344	-1022.304382324219	-239.4220123291016	50.98152542114259	-1001.617370605469	-234.1078643798829	49.14440536499025	-1040.807250976563	-258.3320922851563	43.6131935119629	-1090.380981445313	-324.7498168945313	402.8307189941407	-848.8599243164065	-258.7196960449219	412.0460510253907	-854.5596923828127	-246.5526580810547	443.4852600097657	-865.3909912109377	-201.9078369140626	353.6732177734376	-872.7529296875002	-152.0762634277344	326.4842834472657	-878.713073730469	-137.872543334961	344.1860656738282	-995.357360839844	-15.54931259155274	293.4365234375001	-901.0903320312502	16.23497200012207	192.0648193359376	-873.2432250976565	42.31853866577149	230.0619506835938	-885.239440917969	87.36705017089845	216.1673278808594	-919.2942504882815	177.0052642822266	90.89337158203126	-884.4583129882815	172.7802886962891	113.3740539550782	-966.5188598632815	155.6959228515625	32.95549011230469	-923.6416625976565	308.7778930664063	166.2432708740235	-969.7105102539065	309.6921081542969	179.6061401367188	-924.2908935546877	309.0244445800782	149.7837677001953	-868.8660888671877	
584	2.915	-176.4949951171875	1185.023681640625	-1045.682250976563	-318.6358337402344	1126.801635742188	-1146.642578125	-309.5237426757813	1132.612548828125	-994.2310791015627	-376.7637023925782	1033.6259765625	-1054.342895507813	-531.9369506835939	762.6829223632814	-1021.174194335938	-270.7039794921876	928.4394531250002	-1064.95654296875	-306.6396179199219	990.2192382812502	-1214.603393554688	-173.6769104003907	949.9317626953127	-1305.199096679688	-138.3514099121094	960.656677246094	-1273.52587890625	-109.1434326171875	944.2084960937502	-1325.262084960938	-61.23342895507814	924.5434570312502	-1343.309326171875	-50.10256576538087	859.950622558594	-1297.365600585938	189.8938446044922	945.6379394531252	-1314.681274414063	182.6344146728516	951.219909667969	-1379.75	272.1006774902344	963.9542236328127	-1321.41796875	-288.9539489746094	990.229431152344	-917.8811035156252	-152.5963439941407	946.3536376953127	-830.3862304687502	-124.3719100952149	974.0991821289065	-858.5194091796877	-82.30472564697267	939.409606933594	-830.7744750976565	-15.65057945251465	941.7716064453127	-839.980651855469	-14.99715518951416	889.0542602539065	-895.172790527344	222.6343231201172	962.0811157226565	-910.3566894531252	218.8232421875001	963.0606079101565	-844.3994750976565	299.0887451171876	982.9222412109377	-903.2025146484377	-432.9208984375001	578.6462402343751	-1133.256103515625	nan	nan	nan	-578.9298095703126	645.5839233398439	-1010.10009765625	-594.4038085937501	618.1286621093751	-1039.26416015625	-588.5126953125001	612.8322753906251	-982.9659423828127	-420.1462402343751	489.0092163085939	-1204.936401367188	-335.0351257324219	495.1105041503907	-1201.624633789063	-319.9176940917969	534.9683837890626	-1177.57177734375	-295.8780822753907	449.1392211914064	-1199.629516601563	-157.5691223144532	386.6043701171876	-1168.4443359375	-153.9314880371094	405.0357055664064	-1050.9736328125	-182.8595581054688	281.1885070800782	-1059.466186523438	-224.6378936767579	222.9778137207032	-1113.408813476563	-202.4960479736329	225.2767639160157	-1072.080932617188	-263.7388305664063	185.4641876220703	-1031.120239257813	-376.9981384277344	106.0566940307617	-1072.424194335938	-348.2285766601563	122.9006805419922	-991.1611938476565	-441.4563293457032	96.64688873291018	-1022.260681152344	-239.3838653564454	50.98673629760744	-1001.570007324219	-234.1395111083985	49.14141845703126	-1040.76025390625	-258.3898925781251	43.57388305664063	-1090.361328125	-324.6257019042969	401.0750122070314	-848.809753417969	-258.4900512695313	410.5163879394532	-854.4020996093752	-246.320785522461	442.1386108398439	-865.2271728515627	-201.5024108886719	352.2885437011719	-872.7397460937502	-151.6167907714844	325.3300170898438	-878.782409667969	-137.541244506836	343.1018066406251	-995.3419189453127	-15.10518455505371	292.8398437500001	-901.0548095703127	17.14769363403321	191.3032684326172	-873.2807617187502	43.08197402954102	229.4483184814454	-885.3034667968752	88.06492614746095	215.7696838378907	-919.2928466796877	178.0732727050782	90.84041595458986	-884.5194091796877	174.2322998046875	113.2712097167969	-966.5711059570315	156.6118621826172	33.29981994628907	-923.638854980469	310.1603088378907	165.7568054199219	-969.6584472656252	311.1421203613282	179.1020050048828	-924.3493652343752	310.4979858398438	149.9126892089844	-868.690612792969	
